<svg xmlns="http://www.w3.org/2000/svg" viewBox="-24 -180 894.8000000000001 248" width="895" height="248" role="img" aria-label="analytics">
  <g fill="#111111"><path d="M44.80 2.40L44.80 2.40Q28.20 2.40 18.30-5.20Q8.40-12.80 8.40-26.60L8.40-26.60Q8.40-40.20 16.70-48Q25-55.80 42.40-59.20L42.40-59.20L79-66.20Q79-90.80 56-90.80L56-90.80Q45.80-90.80 40-86.20Q34.20-81.60 32-73L32-73L10.20-74.40Q13.20-90.40 25.10-99.60Q37-108.80 56-108.80L56-108.80Q77.60-108.80 88.90-97.30Q100.20-85.80 100.20-65L100.20-65L100.20-23.60Q100.20-19.80 101.50-18.30Q102.80-16.80 105.80-16.80L105.80-16.80L109.60-16.80L109.60 0Q106.80 0.60 101.80 0.60L101.80 0.60Q92.80 0.60 87.50-3.10Q82.20-6.80 80.80-15.80L80.80-15.80L80.80-16.40Q76.80-8 67-2.80Q57.20 2.40 44.80 2.40ZM48.20-14.40L48.20-14.40Q62.60-14.40 70.80-22.60Q79-30.80 79-43.40L79-43.40L79-50.20L47.80-44.20Q38.20-42.40 34.30-38.50Q30.40-34.60 30.40-28.60L30.40-28.60Q30.40-21.80 35.10-18.10Q39.80-14.40 48.20-14.40Z M143.60 0L122.40 0L122.40-106.40L141.80-106.40L142.20-87.80Q146.40-98.80 155-103.80Q163.60-108.80 174.60-108.80L174.60-108.80Q186.40-108.80 194.40-103.50Q202.40-98.20 206.50-89.10Q210.60-80 210.60-68.40L210.60-68.40L210.60 0L189.40 0L189.40-62Q189.40-76 184.70-83.50Q180-91 168.80-91L168.80-91Q157.40-91 150.50-83.50Q143.60-76 143.60-62L143.60-62L143.60 0Z M263.20 2.40L263.20 2.40Q246.60 2.40 236.70-5.20Q226.80-12.80 226.80-26.60L226.80-26.60Q226.80-40.20 235.10-48Q243.40-55.80 260.80-59.20L260.80-59.20L297.40-66.20Q297.40-90.80 274.40-90.80L274.40-90.80Q264.20-90.80 258.40-86.20Q252.60-81.60 250.40-73L250.40-73L228.60-74.40Q231.60-90.40 243.50-99.60Q255.40-108.80 274.40-108.80L274.40-108.80Q296-108.80 307.30-97.30Q318.60-85.80 318.60-65L318.60-65L318.60-23.60Q318.60-19.80 319.90-18.30Q321.20-16.80 324.20-16.80L324.20-16.80L328-16.80L328 0Q325.20 0.60 320.20 0.60L320.20 0.60Q311.20 0.60 305.90-3.10Q300.60-6.80 299.20-15.80L299.20-15.80L299.20-16.40Q295.20-8 285.40-2.80Q275.60 2.40 263.20 2.40ZM266.60-14.40L266.60-14.40Q281-14.40 289.20-22.60Q297.40-30.80 297.40-43.40L297.40-43.40L297.40-50.20L266.20-44.20Q256.60-42.40 252.70-38.50Q248.80-34.60 248.80-28.60L248.80-28.60Q248.80-21.80 253.50-18.10Q258.20-14.40 266.60-14.40Z M376.40 0L362.60 0Q352 0 345.70-5.40Q339.40-10.80 339.40-22.60L339.40-22.60L339.40-142L360.60-142L360.60-24.60Q360.60-17.40 368-17.40L368-17.40L376.40-17.40L376.40 0Z M407.40 30L391.40 30L391.40 12.60L404.40 12.60Q409.80 12.60 412.40 11Q415 9.40 416.40 5.60L416.40 5.60L419.80-3.20L413.20-3.20L374.80-106.40L397.20-106.40L426.40-22.80L454.20-106.40L476.80-106.40L434.40 12.40Q431.20 21.60 424.90 25.80Q418.60 30 407.40 30L407.40 30Z M547 0L527.20 0Q512 0 504.80-6.90Q497.60-13.80 497.60-28.80L497.60-28.80L497.60-89L481.40-89L481.40-106.40L497.60-106.40L497.60-131.40L518.80-131.40L518.80-106.40L547-106.40L547-89L518.80-89L518.80-30.40Q518.80-23 522-20.20Q525.20-17.40 531.80-17.40L531.80-17.40L547-17.40L547 0Z M581.80 0L560.60 0L560.60-106.40L581.80-106.40L581.80 0ZM582.20-121.80L560.20-121.80L560.20-143L582.20-143L582.20-121.80Z M648.60 2.40L648.60 2.40Q633.40 2.40 622.00-4.50Q610.60-11.40 604.40-23.90Q598.20-36.40 598.20-53.20L598.20-53.20Q598.20-70 604.40-82.50Q610.60-95 622.00-101.90Q633.40-108.80 648.60-108.80L648.60-108.80Q668.00-108.80 680.80-98.70Q693.60-88.60 696.20-70.20L696.20-70.20L674.00-69Q672.40-79.40 665.60-84.90Q658.80-90.40 648.60-90.40L648.60-90.40Q635.20-90.40 627.70-80.50Q620.20-70.60 620.20-53.20L620.20-53.20Q620.20-35.60 627.70-25.80Q635.20-16 648.60-16L648.60-16Q658.80-16 665.60-21.70Q672.40-27.40 674.00-39L674.00-39L696.20-37.80Q693.60-19.40 680.90-8.50Q668.20 2.40 648.60 2.40Z M751.40 2.40L751.40 2.40Q728.20 2.40 716.60-7.70Q705.00-17.80 703.80-33.60L703.80-33.60L725.60-34.60Q727.00-25.80 732.80-20.60Q738.60-15.40 751.40-15.40L751.40-15.40Q761.40-15.40 766.70-18.60Q772.00-21.80 772.00-28.80L772.00-28.80Q772.00-32.80 770.20-35.40Q768.40-38 763.20-39.90Q758.00-41.80 747.80-43.60L747.80-43.60Q732.20-46.60 723.50-50.70Q714.80-54.80 711.20-60.90Q707.60-67 707.60-75.80L707.60-75.80Q707.60-90.20 718.60-99.50Q729.60-108.80 750.40-108.80L750.40-108.80Q765.00-108.80 774.40-103.90Q783.80-99 788.60-91Q793.40-83 794.40-73.80L794.40-73.80L772.60-72.60Q772.00-80.20 766.90-85.60Q761.80-91 750.00-91L750.00-91Q739.60-91 734.60-87Q729.60-83 729.60-76.60L729.60-76.60Q729.60-69.60 734.30-66.10Q739.00-62.60 752.00-60.60L752.00-60.60Q768.20-58 777.30-53.90Q786.40-49.80 790.20-43.70Q794.00-37.60 794.00-29L794.00-29Q794.00-14 782.20-5.80Q770.40 2.40 751.40 2.40Z"></path></g>
  <circle cx="830.80" cy="20.00" r="16.00" fill="#4f46e5"></circle>
</svg>