<svg xmlns="http://www.w3.org/2000/svg" viewBox="-24 -180 599.2 248" width="599" height="248" role="img" aria-label="notes">
  <g fill="#111111"><path d="M36.20 0L15 0L15-106.40L34.40-106.40L34.80-87.80Q39-98.80 47.60-103.80Q56.20-108.80 67.20-108.80L67.20-108.80Q79-108.80 87-103.50Q95-98.20 99.10-89.10Q103.20-80 103.20-68.40L103.20-68.40L103.20 0L82 0L82-62Q82-76 77.30-83.50Q72.60-91 61.40-91L61.40-91Q50-91 43.10-83.50Q36.20-76 36.20-62L36.20-62L36.20 0Z M169.60 2.40L169.60 2.40Q154.40 2.40 143-4.50Q131.60-11.40 125.40-23.80Q119.20-36.20 119.20-53.20L119.20-53.20Q119.20-70.20 125.40-82.60Q131.60-95 143-101.90Q154.40-108.80 169.60-108.80L169.60-108.80Q184.80-108.80 196.20-101.90Q207.60-95 213.80-82.60Q220-70.20 220-53.20L220-53.20Q220-36.20 213.80-23.80Q207.60-11.40 196.20-4.50Q184.80 2.40 169.60 2.40ZM169.60-16L169.60-16Q183.20-16 190.60-25.80Q198-35.60 198-53.20L198-53.20Q198-70.60 190.60-80.50Q183.20-90.40 169.60-90.40L169.60-90.40Q156.20-90.40 148.70-80.50Q141.20-70.60 141.20-53.20L141.20-53.20Q141.20-35.60 148.70-25.80Q156.20-16 169.60-16Z M293.20 0L273.40 0Q258.20 0 251.00-6.90Q243.80-13.80 243.80-28.80L243.80-28.80L243.80-89L227.60-89L227.60-106.40L243.80-106.40L243.80-131.40L265-131.40L265-106.40L293.20-106.40L293.20-89L265-89L265-30.40Q265-23 268.20-20.20Q271.40-17.40 278-17.40L278-17.40L293.20-17.40L293.20 0Z M350.40 2.40L350.40 2.40Q334.80 2.40 323.50-4.50Q312.20-11.40 306.10-23.90Q300-36.40 300-53.20L300-53.20Q300-70 306.10-82.50Q312.20-95 323.40-101.90Q334.60-108.80 349.80-108.80L349.80-108.80Q364.20-108.80 375.20-102.10Q386.20-95.40 392.30-82.80Q398.40-70.20 398.40-52.40L398.40-52.40L398.40-47L322-47Q322.80-31.40 330.30-23.60Q337.80-15.80 350.60-15.80L350.60-15.80Q360-15.80 366.10-20.10Q372.20-24.40 374.80-32L374.80-32L396.80-30.60Q392.60-15.60 380.30-6.60Q368 2.40 350.40 2.40ZM322-63L322-63L376-63Q375-77.20 367.80-84Q360.60-90.80 349.80-90.80L349.80-90.80Q338.40-90.80 331.10-83.70Q323.80-76.60 322-63Z M455.80 2.40L455.80 2.40Q432.60 2.40 421-7.70Q409.40-17.80 408.20-33.60L408.20-33.60L430-34.60Q431.40-25.80 437.20-20.60Q443-15.40 455.80-15.40L455.80-15.40Q465.80-15.40 471.10-18.60Q476.40-21.80 476.40-28.80L476.40-28.80Q476.40-32.80 474.60-35.40Q472.80-38 467.60-39.90Q462.40-41.80 452.20-43.60L452.20-43.60Q436.60-46.60 427.90-50.70Q419.20-54.80 415.60-60.90Q412-67 412-75.80L412-75.80Q412-90.20 423-99.50Q434-108.80 454.80-108.80L454.80-108.80Q469.40-108.80 478.80-103.90Q488.20-99 493-91Q497.80-83 498.80-73.80L498.80-73.80L477-72.60Q476.40-80.20 471.30-85.60Q466.20-91 454.40-91L454.40-91Q444-91 439-87Q434-83 434-76.60L434-76.60Q434-69.60 438.70-66.10Q443.40-62.60 456.40-60.60L456.40-60.60Q472.60-58 481.70-53.90Q490.80-49.80 494.60-43.70Q498.40-37.60 498.40-29L498.40-29Q498.40-14 486.60-5.80Q474.80 2.40 455.80 2.40Z"></path></g>
  <circle cx="535.20" cy="20.00" r="16.00" fill="#4f46e5"></circle>
</svg>