<svg xmlns="http://www.w3.org/2000/svg" viewBox="-24 -180 587 248" width="587" height="248" role="img" aria-label="tasks">
  <g fill="#111111"><path d="M75.60 0L55.80 0Q40.60 0 33.40-6.90Q26.20-13.80 26.20-28.80L26.20-28.80L26.20-89L10-89L10-106.40L26.20-106.40L26.20-131.40L47.40-131.40L47.40-106.40L75.60-106.40L75.60-89L47.40-89L47.40-30.40Q47.40-23 50.60-20.20Q53.80-17.40 60.40-17.40L60.40-17.40L75.60-17.40L75.60 0Z M120 2.40L120 2.40Q103.40 2.40 93.50-5.20Q83.60-12.80 83.60-26.60L83.60-26.60Q83.60-40.20 91.90-48Q100.20-55.80 117.60-59.20L117.60-59.20L154.20-66.20Q154.20-90.80 131.20-90.80L131.20-90.80Q121-90.80 115.20-86.20Q109.40-81.60 107.20-73L107.20-73L85.40-74.40Q88.40-90.40 100.30-99.60Q112.20-108.80 131.20-108.80L131.20-108.80Q152.80-108.80 164.10-97.30Q175.40-85.80 175.40-65L175.40-65L175.40-23.60Q175.40-19.80 176.70-18.30Q178-16.80 181-16.80L181-16.80L184.80-16.80L184.80 0Q182 0.60 177 0.60L177 0.60Q168 0.60 162.70-3.10Q157.40-6.80 156-15.80L156-15.80L156-16.40Q152-8 142.20-2.80Q132.40 2.40 120 2.40ZM123.40-14.40L123.40-14.40Q137.80-14.40 146-22.60Q154.20-30.80 154.20-43.40L154.20-43.40L154.20-50.20L123-44.20Q113.40-42.40 109.50-38.50Q105.60-34.60 105.60-28.60L105.60-28.60Q105.60-21.80 110.30-18.10Q115-14.40 123.40-14.40Z M237.80 2.40L237.80 2.40Q214.60 2.40 203-7.70Q191.40-17.80 190.20-33.60L190.20-33.60L212-34.60Q213.40-25.80 219.20-20.60Q225-15.40 237.80-15.40L237.80-15.40Q247.80-15.40 253.10-18.60Q258.40-21.80 258.40-28.80L258.40-28.80Q258.40-32.80 256.60-35.40Q254.80-38 249.60-39.90Q244.40-41.80 234.20-43.60L234.20-43.60Q218.60-46.60 209.90-50.70Q201.20-54.80 197.60-60.90Q194-67 194-75.80L194-75.80Q194-90.20 205-99.50Q216-108.80 236.80-108.80L236.80-108.80Q251.40-108.80 260.80-103.90Q270.20-99 275-91Q279.80-83 280.80-73.80L280.80-73.80L259-72.60Q258.40-80.20 253.30-85.60Q248.20-91 236.40-91L236.40-91Q226-91 221-87Q216-83 216-76.60L216-76.60Q216-69.60 220.70-66.10Q225.40-62.60 238.40-60.60L238.40-60.60Q254.60-58 263.70-53.90Q272.80-49.80 276.60-43.70Q280.40-37.60 280.40-29L280.40-29Q280.40-14 268.60-5.80Q256.80 2.40 237.80 2.40Z M318.40 0L297.20 0L297.20-142L318.40-142L318.40-53.80L366.20-106.40L393.00-106.40L351.40-61.60L394.60 0L370.20 0L337.20-48.40L318.40-28.40L318.40 0Z M443.60 2.40L443.60 2.40Q420.40 2.40 408.80-7.70Q397.20-17.80 396-33.60L396-33.60L417.80-34.60Q419.20-25.80 425-20.60Q430.80-15.40 443.60-15.40L443.60-15.40Q453.60-15.40 458.90-18.60Q464.20-21.80 464.20-28.80L464.20-28.80Q464.20-32.80 462.40-35.40Q460.60-38 455.40-39.90Q450.20-41.80 440-43.60L440-43.60Q424.40-46.60 415.70-50.70Q407-54.80 403.40-60.90Q399.80-67 399.80-75.80L399.80-75.80Q399.80-90.20 410.80-99.50Q421.80-108.80 442.60-108.80L442.60-108.80Q457.20-108.80 466.60-103.90Q476-99 480.80-91Q485.60-83 486.60-73.80L486.60-73.80L464.80-72.60Q464.20-80.20 459.10-85.60Q454-91 442.20-91L442.20-91Q431.80-91 426.80-87Q421.80-83 421.80-76.60L421.80-76.60Q421.80-69.60 426.50-66.10Q431.20-62.60 444.20-60.60L444.20-60.60Q460.40-58 469.50-53.90Q478.60-49.80 482.40-43.70Q486.20-37.60 486.20-29L486.20-29Q486.20-14 474.40-5.80Q462.60 2.40 443.60 2.40Z"></path></g>
  <circle cx="523.00" cy="20.00" r="16.00" fill="#4f46e5"></circle>
</svg>