<svg xmlns="http://www.w3.org/2000/svg" viewBox="-24 -180 893.8000000000001 248" width="894" height="248" role="img" aria-label="roadmap">
  <g fill="#111111"><path d="M36.20 0L15 0L15-106.40L34.40-106.40L35-86.20Q38-96.60 44.30-101.50Q50.60-106.40 60.40-106.40L60.40-106.40L70.60-106.40L70.60-87.40L60.40-87.40Q48.20-87.40 42.20-81.40Q36.20-75.40 36.20-62.80L36.20-62.80L36.20 0Z M124.60 2.40L124.60 2.40Q109.40 2.40 98.00-4.50Q86.60-11.40 80.40-23.80Q74.20-36.20 74.20-53.20L74.20-53.20Q74.20-70.20 80.40-82.60Q86.60-95 98.00-101.90Q109.40-108.80 124.60-108.80L124.60-108.80Q139.80-108.80 151.20-101.90Q162.60-95 168.80-82.60Q175-70.20 175-53.20L175-53.20Q175-36.20 168.80-23.80Q162.60-11.40 151.20-4.50Q139.80 2.40 124.60 2.40ZM124.60-16L124.60-16Q138.20-16 145.60-25.80Q153-35.60 153-53.20L153-53.20Q153-70.60 145.60-80.50Q138.20-90.40 124.60-90.40L124.60-90.40Q111.20-90.40 103.70-80.50Q96.20-70.60 96.20-53.20L96.20-53.20Q96.20-35.60 103.70-25.80Q111.20-16 124.60-16Z M223.40 2.40L223.40 2.40Q206.80 2.40 196.90-5.20Q187.00-12.80 187.00-26.60L187.00-26.60Q187.00-40.20 195.30-48Q203.60-55.80 221.00-59.20L221.00-59.20L257.60-66.20Q257.60-90.80 234.60-90.80L234.60-90.80Q224.40-90.80 218.60-86.20Q212.80-81.60 210.60-73L210.60-73L188.80-74.40Q191.80-90.40 203.70-99.60Q215.60-108.80 234.60-108.80L234.60-108.80Q256.20-108.80 267.50-97.30Q278.80-85.80 278.80-65L278.80-65L278.80-23.60Q278.80-19.80 280.10-18.30Q281.40-16.80 284.40-16.80L284.40-16.80L288.20-16.80L288.20 0Q285.40 0.60 280.40 0.60L280.40 0.60Q271.40 0.60 266.10-3.10Q260.80-6.80 259.40-15.80L259.40-15.80L259.40-16.40Q255.40-8 245.60-2.80Q235.80 2.40 223.40 2.40ZM226.80-14.40L226.80-14.40Q241.20-14.40 249.40-22.60Q257.60-30.80 257.60-43.40L257.60-43.40L257.60-50.20L226.40-44.20Q216.80-42.40 212.90-38.50Q209.00-34.60 209.00-28.60L209.00-28.60Q209.00-21.80 213.70-18.10Q218.40-14.40 226.80-14.40Z M338.00 2.40L338.00 2.40Q324.40 2.40 314.40-4.40Q304.40-11.20 299.00-23.70Q293.60-36.20 293.60-53.20L293.60-53.20Q293.60-70.20 299.00-82.70Q304.40-95.20 314.40-102Q324.40-108.80 338.00-108.80L338.00-108.80Q349.00-108.80 357.60-104.20Q366.20-99.60 370.60-91.40L370.60-91.40L370.60-142L391.80-142L391.80 0L372.00 0L371.40-16Q367.00-7.20 358.10-2.40Q349.20 2.40 338.00 2.40ZM343.60-16L343.60-16Q356.60-16 363.60-25.80Q370.60-35.60 370.60-53.20L370.60-53.20Q370.60-71 363.60-80.70Q356.60-90.40 343.60-90.40L343.60-90.40Q330.80-90.40 323.20-80.50Q315.60-70.60 315.60-53.20L315.60-53.20Q315.60-36.20 323.20-26.10Q330.80-16 343.60-16Z M439.20 0L418.00 0L418.00-106.40L437.40-106.40L437.80-88.20Q441.80-97.80 449.60-103.30Q457.40-108.80 467.40-108.80L467.40-108.80Q479.20-108.80 487.30-103Q495.40-97.20 498.80-86.80L498.80-86.80Q502.40-97.40 510.30-103.10Q518.20-108.80 529.60-108.80L529.60-108.80Q546.40-108.80 555.60-98.30Q564.80-87.80 564.80-68.40L564.80-68.40L564.80 0L543.60 0L543.60-63.20Q543.60-91 523.40-91L523.40-91Q513.40-91 507.40-83.40Q501.40-75.80 501.40-62.40L501.40-62.40L501.40 0L481.20 0L481.20-62.40Q481.20-75.80 476.70-83.40Q472.20-91 461.40-91L461.40-91Q451.20-91 445.20-83.40Q439.20-75.80 439.20-62.40L439.20-62.40L439.20 0Z M617.60 2.40L617.60 2.40Q601.00 2.40 591.10-5.20Q581.20-12.80 581.20-26.60L581.20-26.60Q581.20-40.20 589.50-48Q597.80-55.80 615.20-59.20L615.20-59.20L651.80-66.20Q651.80-90.80 628.80-90.80L628.80-90.80Q618.60-90.80 612.80-86.20Q607.00-81.60 604.80-73L604.80-73L583.00-74.40Q586.00-90.40 597.90-99.60Q609.80-108.80 628.80-108.80L628.80-108.80Q650.40-108.80 661.70-97.30Q673.00-85.80 673.00-65L673.00-65L673.00-23.60Q673.00-19.80 674.30-18.30Q675.60-16.80 678.60-16.80L678.60-16.80L682.40-16.80L682.40 0Q679.60 0.60 674.60 0.60L674.60 0.60Q665.60 0.60 660.30-3.10Q655.00-6.80 653.60-15.80L653.60-15.80L653.60-16.40Q649.60-8 639.80-2.80Q630.00 2.40 617.60 2.40ZM621.00-14.40L621.00-14.40Q635.40-14.40 643.60-22.60Q651.80-30.80 651.80-43.40L651.80-43.40L651.80-50.20L620.60-44.20Q611.00-42.40 607.10-38.50Q603.20-34.60 603.20-28.60L603.20-28.60Q603.20-21.80 607.90-18.10Q612.60-14.40 621.00-14.40Z M716.40 30L695.20 30L695.20-106.40L715.20-106.40L715.60-90.20Q720.20-99.40 728.70-104.10Q737.20-108.80 747.80-108.80L747.80-108.80Q763.40-108.80 773.50-101.10Q783.60-93.40 788.50-80.80Q793.40-68.20 793.40-53.20L793.40-53.20Q793.40-38.20 788.50-25.60Q783.60-13 773.50-5.30Q763.40 2.40 747.80 2.40L747.80 2.40Q737.60 2.40 729.20-2.10Q720.80-6.60 716.40-14.40L716.40-14.40L716.40 30ZM744-16L744-16Q756.80-16 764.10-25.80Q771.40-35.60 771.40-53.20L771.40-53.20Q771.40-70.80 764.10-80.60Q756.80-90.40 744-90.40L744-90.40Q731.20-90.40 723.80-81Q716.40-71.60 716.40-53.20L716.40-53.20Q716.40-34.80 723.80-25.40Q731.20-16 744-16Z"></path></g>
  <circle cx="829.80" cy="20.00" r="16.00" fill="#4f46e5"></circle>
</svg>