<svg xmlns="http://www.w3.org/2000/svg" viewBox="0 0 1600 900" width="1600" height="900">
  <rect x="0" y="0" width="1600" height="900" fill="#111111"></rect>
  <g transform="translate(212.60,506.00)">
    <g fill="#ffffff"><path d="M56 2.40L56 2.40Q32.80 2.40 21.20-7.70Q9.60-17.80 8.40-33.60L8.40-33.60L30.20-34.60Q31.60-25.80 37.40-20.60Q43.20-15.40 56-15.40L56-15.40Q66-15.40 71.30-18.60Q76.60-21.80 76.60-28.80L76.60-28.80Q76.60-32.80 74.80-35.40Q73-38 67.80-39.90Q62.60-41.80 52.40-43.60L52.40-43.60Q36.80-46.60 28.10-50.70Q19.40-54.80 15.80-60.90Q12.20-67 12.20-75.80L12.20-75.80Q12.20-90.20 23.20-99.50Q34.20-108.80 55-108.80L55-108.80Q69.60-108.80 79-103.90Q88.40-99 93.20-91Q98-83 99-73.80L99-73.80L77.20-72.60Q76.60-80.20 71.50-85.60Q66.40-91 54.60-91L54.60-91Q44.20-91 39.20-87Q34.20-83 34.20-76.60L34.20-76.60Q34.20-69.60 38.90-66.10Q43.60-62.60 56.60-60.60L56.60-60.60Q72.80-58 81.90-53.90Q91-49.80 94.80-43.70Q98.60-37.60 98.60-29L98.60-29Q98.60-14 86.80-5.80Q75 2.40 56 2.40Z M136.60 0L115.40 0L115.40-106.40L136.60-106.40L136.60 0ZM137-121.80L115-121.80L115-143L137-143L137-121.80Z M202.40 32.40L202.40 32.40Q183.40 32.40 171.40 24Q159.40 15.60 156.00 1.80L156.00 1.80L178.00 0.40Q180.20 7.20 185.70 11Q191.20 14.80 202.40 14.80L202.40 14.80Q215.60 14.80 222.70 9.20Q229.80 3.60 229.80-7.80L229.80-7.80L229.80-23.20Q225.80-15 217.40-10.20Q209.00-5.40 198.80-5.40L198.80-5.40Q185.40-5.40 175.00-11.90Q164.60-18.40 158.80-30.10Q153.00-41.80 153.00-57L153.00-57Q153.00-72.20 158.70-83.90Q164.40-95.60 174.60-102.20Q184.80-108.80 198.00-108.80L198.00-108.80Q209.40-108.80 218.10-103.60Q226.80-98.40 230.60-89.60L230.60-89.60L230.60-106.40L251.00-106.40L251.00-8.40Q251.00 11.20 237.90 21.80Q224.80 32.40 202.40 32.40ZM202.20-23.40L202.20-23.40Q214.60-23.40 222.10-32.40Q229.60-41.40 229.80-57.20L229.80-57.20Q230.00-72.80 222.40-81.80Q214.80-90.80 202.20-90.80L202.20-90.80Q189.20-90.80 182.10-81.70Q175.00-72.60 175.00-57.20L175.00-57.20Q175.00-41.60 182.30-32.50Q189.60-23.40 202.20-23.40Z M297.20 0L276 0L276-106.40L295.40-106.40L295.80-87.80Q300-98.80 308.60-103.80Q317.20-108.80 328.20-108.80L328.20-108.80Q340-108.80 348-103.50Q356-98.20 360.10-89.10Q364.20-80 364.20-68.40L364.20-68.40L364.20 0L343 0L343-62Q343-76 338.30-83.50Q333.60-91 322.40-91L322.40-91Q311-91 304.10-83.50Q297.20-76 297.20-62L297.20-62L297.20 0Z M416.80 2.40L416.80 2.40Q400.20 2.40 390.30-5.20Q380.40-12.80 380.40-26.60L380.40-26.60Q380.40-40.20 388.70-48Q397-55.80 414.40-59.20L414.40-59.20L451-66.20Q451-90.80 428-90.80L428-90.80Q417.80-90.80 412-86.20Q406.20-81.60 404-73L404-73L382.20-74.40Q385.20-90.40 397.10-99.60Q409-108.80 428-108.80L428-108.80Q449.60-108.80 460.90-97.30Q472.20-85.80 472.20-65L472.20-65L472.20-23.60Q472.20-19.80 473.50-18.30Q474.80-16.80 477.80-16.80L477.80-16.80L481.60-16.80L481.60 0Q478.80 0.60 473.80 0.60L473.80 0.60Q464.80 0.60 459.50-3.10Q454.20-6.80 452.80-15.80L452.80-15.80L452.80-16.40Q448.80-8 439-2.80Q429.20 2.40 416.80 2.40ZM420.20-14.40L420.20-14.40Q434.60-14.40 442.80-22.60Q451-30.80 451-43.40L451-43.40L451-50.20L419.80-44.20Q410.20-42.40 406.30-38.50Q402.40-34.60 402.40-28.60L402.40-28.60Q402.40-21.80 407.10-18.10Q411.80-14.40 420.20-14.40Z M530 0L516.20 0Q505.60 0 499.30-5.40Q493-10.80 493-22.60L493-22.60L493-142L514.20-142L514.20-24.60Q514.20-17.40 521.60-17.40L521.60-17.40L530-17.40L530 0Z  M629 2.40L629 2.40Q605.80 2.40 594.20-7.70Q582.60-17.80 581.40-33.60L581.40-33.60L603.20-34.60Q604.60-25.80 610.40-20.60Q616.20-15.40 629-15.40L629-15.40Q639-15.40 644.30-18.60Q649.60-21.80 649.60-28.80L649.60-28.80Q649.60-32.80 647.80-35.40Q646-38 640.80-39.90Q635.60-41.80 625.40-43.60L625.40-43.60Q609.80-46.60 601.10-50.70Q592.40-54.80 588.80-60.90Q585.20-67 585.20-75.80L585.20-75.80Q585.20-90.20 596.20-99.50Q607.20-108.80 628-108.80L628-108.80Q642.60-108.80 652-103.90Q661.40-99 666.20-91Q671-83 672-73.80L672-73.80L650.20-72.60Q649.60-80.20 644.50-85.60Q639.40-91 627.60-91L627.60-91Q617.20-91 612.20-87Q607.20-83 607.20-76.60L607.20-76.60Q607.20-69.60 611.90-66.10Q616.60-62.60 629.60-60.60L629.60-60.60Q645.80-58 654.90-53.90Q664-49.80 667.80-43.70Q671.60-37.60 671.60-29L671.60-29Q671.60-14 659.80-5.80Q648 2.40 629 2.40Z M745.20 0L725.40 0Q710.20 0 703-6.90Q695.80-13.80 695.80-28.80L695.80-28.80L695.80-89L679.60-89L679.60-106.40L695.80-106.40L695.80-131.40L717-131.40L717-106.40L745.20-106.40L745.20-89L717-89L717-30.40Q717-23 720.20-20.20Q723.40-17.40 730-17.40L730-17.40L745.20-17.40L745.20 0Z M795.80 2.40L795.80 2.40Q779.60 2.40 770.20-8.20Q760.80-18.80 760.80-38L760.80-38L760.80-106.40L782.00-106.40L782.00-43.40Q782.00-29 787.00-22.20Q792.00-15.40 802.20-15.40L802.20-15.40Q813.80-15.40 820.30-22.90Q826.80-30.40 826.80-44L826.80-44L826.80-106.40L848.00-106.40L848.00 0L828.20 0L828.00-17.40Q819.40 2.40 795.80 2.40Z M908.80 2.40L908.80 2.40Q895.20 2.40 885.20-4.40Q875.20-11.20 869.80-23.70Q864.40-36.20 864.40-53.20L864.40-53.20Q864.40-70.20 869.80-82.70Q875.20-95.20 885.20-102Q895.20-108.80 908.80-108.80L908.80-108.80Q919.80-108.80 928.40-104.20Q937.00-99.60 941.40-91.40L941.40-91.40L941.40-142L962.60-142L962.60 0L942.80 0L942.20-16Q937.80-7.20 928.90-2.40Q920.00 2.40 908.80 2.40ZM914.40-16L914.40-16Q927.40-16 934.40-25.80Q941.40-35.60 941.40-53.20L941.40-53.20Q941.40-71 934.40-80.70Q927.40-90.40 914.40-90.40L914.40-90.40Q901.60-90.40 894.00-80.50Q886.40-70.60 886.40-53.20L886.40-53.20Q886.40-36.20 894.00-26.10Q901.60-16 914.40-16Z M1005.20 0L984.00 0L984.00-106.40L1005.20-106.40L1005.20 0ZM1005.60-121.80L983.60-121.80L983.60-143L1005.60-143L1005.60-121.80Z M1072.00 2.40L1072.00 2.40Q1056.80 2.40 1045.40-4.50Q1034.00-11.40 1027.80-23.80Q1021.60-36.20 1021.60-53.20L1021.60-53.20Q1021.60-70.20 1027.80-82.60Q1034.00-95 1045.40-101.90Q1056.80-108.80 1072.00-108.80L1072.00-108.80Q1087.20-108.80 1098.60-101.90Q1110.00-95 1116.20-82.60Q1122.40-70.20 1122.40-53.20L1122.40-53.20Q1122.40-36.20 1116.20-23.80Q1110.00-11.40 1098.60-4.50Q1087.20 2.40 1072.00 2.40ZM1072.00-16L1072.00-16Q1085.60-16 1093.00-25.80Q1100.40-35.60 1100.40-53.20L1100.40-53.20Q1100.40-70.60 1093.00-80.50Q1085.60-90.40 1072.00-90.40L1072.00-90.40Q1058.60-90.40 1051.10-80.50Q1043.60-70.60 1043.60-53.20L1043.60-53.20Q1043.60-35.60 1051.10-25.80Q1058.60-16 1072.00-16Z"></path></g>
    <circle cx="1158.80" cy="20.00" r="16.00" fill="#4f46e5"></circle>
  </g>
</svg>